<?xml version="1.0" encoding="UTF-8" standalone="no"?>
<!-- Created with Inkscape (http://www.inkscape.org/) -->
<svg
   xmlns:svg="http://www.w3.org/2000/svg"
   xmlns="http://www.w3.org/2000/svg"
   version="1.0"
   width="1133.8583"
   height="286.65353"
   id="svg2">
  <defs
     id="defs4">
    <clipPath
       id="clipPath2341">
      <path
         d="M 56.76,811.2 L 65.76,811.2 L 65.76,823.92 L 56.76,823.92 L 56.76,811.2 z"
         id="path2343" />
    </clipPath>
  </defs>
  <g
     transform="translate(-259.51071,-86.687424)"
     id="layer1">
    <path
       d="M 324.52064,256.92918 L 357.05518,256.92918 L 357.05518,248.64766 L 317.4222,248.64766 L 294.94379,274.67529 L 294.94379,307.20983 L 303.22531,307.20983 L 303.22531,279.40759 L 304.40838,279.40759 L 304.40838,279.40759 L 322.15449,258.11225 L 324.52064,256.92918"
       id="path2347"
       style="fill:#19519d;fill-opacity:1;fill-rule:nonzero;stroke:none" />
    <path
       d="M 335.75985,273.49221 L 355.87211,273.49221 L 355.87211,265.21069 L 328.06987,265.21069 L 309.14068,286.50603 L 309.14068,316.67442 L 318.60527,316.67442 L 318.60527,292.4214 L 318.60527,292.4214 L 334.57678,274.67528 L 335.75985,273.49221"
       id="path2351"
       style="fill:#19519d;fill-opacity:1;fill-rule:nonzero;stroke:none" />
    <path
       d="M 342.85829,291.23833 L 357.05518,291.23833 L 357.05518,282.95681 L 336.94292,282.95681 L 324.52064,297.1537 L 324.52064,327.32209 L 331.02755,327.32209 L 331.02755,301.886 L 331.02755,301.886 L 341.67522,292.4214 L 342.85829,291.23833"
       id="path2355"
       style="fill:#19519d;fill-opacity:1;fill-rule:nonzero;stroke:none" />
    <path
       d="M 345.22444,298.33677 L 340.49214,304.25214 L 339.30907,306.02675 L 339.30907,337.96975 L 347.59059,337.96975 L 347.59059,311.94212 L 348.77366,310.75905 L 351.13981,307.20983 L 357.05518,307.20983 L 357.05518,298.33677 L 346.40751,298.33677 L 345.22444,298.33677"
       id="path2359"
       style="fill:#19519d;fill-opacity:1;fill-rule:nonzero;stroke:none" />
    <path
       d="M 568.23392,274.67529 L 545.75551,248.64766 L 507.3056,248.64766 L 507.3056,256.92918 L 540.43168,256.92918 L 541.61475,258.11225 L 559.9524,279.40759 L 559.9524,307.20983 L 569.41699,307.20983 L 569.41699,275.85836 L 568.23392,274.67529"
       id="path2363"
       style="fill:#19519d;fill-opacity:1;fill-rule:nonzero;stroke:none" />
    <path
       d="M 535.69938,265.21069 L 507.3056,265.21069 L 507.3056,273.49221 L 527.41786,273.49221 L 529.78401,274.67528 L 544.57244,292.4214 L 545.75551,293.60447 L 545.75551,316.67442 L 554.03703,316.67442 L 554.03703,288.87217 L 554.03703,288.87217 L 554.03703,286.50602 L 535.69938,265.21069"
       id="path2367"
       style="fill:#19519d;fill-opacity:1;fill-rule:nonzero;stroke:none" />
    <path
       d="M 527.41786,282.95681 L 507.3056,282.95681 L 507.3056,291.23833 L 521.50249,291.23833 L 522.68556,292.4214 L 532.15016,301.886 L 532.15016,327.32209 L 540.43168,327.32209 L 540.43168,298.33677 L 540.43168,298.33677 L 540.43168,297.1537 L 527.41786,282.95681"
       id="path2371"
       style="fill:#19519d;fill-opacity:1;fill-rule:nonzero;stroke:none" />
    <path
       d="M 519.13634,298.33677 L 507.3056,298.33677 L 507.3056,307.20983 L 512.0379,307.20983 L 515.58712,310.75905 L 515.58712,337.96975 L 523.86864,337.96975 L 523.86864,306.02675 L 523.86864,306.02675 L 523.86864,304.25214 L 519.13634,298.33677"
       id="path2375"
       style="fill:#19519d;fill-opacity:1;fill-rule:nonzero;stroke:none" />
    <path
       d="M 153.25,93.46875 C 146.82919,93.46875 141.59375,98.672936 141.59375,105.09375 C 141.59375,110.46803 145.26351,115.01088 150.21875,116.34375 L 150.1875,116.40625 L 150.1875,144.21875 L 201.0625,144.21875 L 201.0625,116.40625 L 201.03125,116.1875 C 205.71762,114.68563 209.125,110.27669 209.125,105.09375 C 209.125,98.672936 203.92081,93.468753 197.5,93.46875 C 191.07919,93.46875 185.84375,98.672936 185.84375,105.09375 C 185.84375,110.33427 189.32658,114.79669 194.09375,116.25 L 193.96875,116.40625 L 193.96875,137.71875 L 156.09375,137.71875 L 156.09375,116.40625 L 156.0625,116.375 C 161.11848,115.11098 164.875,110.53958 164.875,105.09375 C 164.875,98.672936 159.67082,93.468753 153.25,93.46875 z"
       transform="translate(259.51071,86.687424)"
       id="path2379"
       style="fill:#19519d;fill-opacity:1;fill-rule:nonzero;stroke:none" />
    <path
       d="M 512.03789,240.36614 L 512.03789,223.21156 L 513.22096,220.84542 L 539.2486,196.00086 L 539.2486,164.05786 L 550.4878,164.05786 L 550.4878,122.05873 L 536.88245,122.05873 L 536.88245,135.07254 L 528.60093,135.07254 L 528.60093,148.08636 L 521.50248,148.08636 L 521.50248,135.07254 L 512.03789,135.07254 L 512.03789,122.05873 L 497.841,122.05873 L 497.841,164.05786 L 509.67174,164.05786 L 509.67174,185.35319 L 484.82718,210.19775 L 483.64411,211.38082 L 482.46104,213.74697 L 482.46104,213.74697 L 482.46104,241.54921 L 460.57416,241.54921 L 457.02494,242.73229 L 435.72961,266.39377 L 435.72961,267.57685 L 434.54653,266.39377 L 413.2512,243.91536 L 412.06812,242.73229 L 410.88505,241.54921 L 386.63203,241.54921 L 386.63203,213.74697 L 385.44896,211.38082 L 384.26588,210.19775 L 359.42133,185.35319 L 359.42133,164.05786 L 371.25207,164.05786 L 371.25207,122.05873 L 357.05518,122.05873 L 357.05518,135.07254 L 347.59058,135.07254 L 347.59058,148.08636 L 340.49214,148.08636 L 340.49214,135.07254 L 332.21062,135.07254 L 332.21062,122.05873 L 317.42219,122.05873 L 317.42219,164.05786 L 330.43601,164.05786 L 330.43601,196.00086 L 354.68903,220.84542 L 357.05518,223.21156 L 357.05518,242.73229 L 358.23825,243.91536 L 362.97055,248.64766 L 362.97055,316.67442 L 374.80129,316.67442 L 374.80129,285.32296 L 384.26588,285.32296 L 384.26588,300.70292 L 392.5474,300.70292 L 392.5474,316.67442 L 415.61735,316.67442 L 415.61735,274.67529 L 433.36346,294.78755 L 435.72961,294.78755 L 453.47572,274.67529 L 453.47572,316.67442 L 500.20715,316.67442 L 500.20715,304.25214 L 468.85568,304.25214 L 468.85568,264.02762 L 501.39022,264.02762 L 501.39022,241.54921 L 512.03789,241.54921 L 512.03789,240.36614 M 392.5474,271.12607 L 374.80129,271.12607 L 374.80129,264.02762 L 392.5474,264.02762 L 392.5474,271.12607"
       id="path2383"
       style="fill:#19519d;fill-opacity:1;fill-rule:nonzero;stroke:none" />
    <path
       d="M 676.4852,235.63384 L 674.11905,235.63384 L 674.11905,243.91536 L 675.30213,274.67529 L 676.4852,300.70292 L 658.73909,299.51984 L 639.8099,300.70292 L 640.99298,274.67529 L 642.17605,243.91536 L 642.17605,216.11312 L 640.99298,186.53626 L 639.8099,159.32556 L 658.73909,160.50863 L 671.7529,160.50863 L 690.09055,159.32556 L 704.28744,159.32556 L 714.93511,160.50863 L 722.03355,162.87478 C 724.00534,164.05785 725.97714,165.24093 727.94893,166.424 C 730.31508,168.00143 732.68122,169.57887 735.04737,171.1563 C 736.23044,173.52245 737.41352,175.88859 738.59659,178.25474 C 739.77966,180.62089 740.96274,182.98704 742.14581,185.35319 C 742.54017,188.1137 742.93453,190.8742 743.32889,193.63471 C 742.93453,196.00086 742.54017,198.367 742.14581,200.73315 C 741.75145,203.0993 741.3571,205.46545 740.96274,207.8316 C 739.77967,209.40903 738.59659,210.98646 737.41352,212.56389 C 736.23045,214.53568 735.04737,216.50747 733.8643,218.47926 C 732.28687,219.66234 730.70943,220.84541 729.132,222.02849 C 727.16021,223.60592 725.18842,225.18335 723.21663,226.76078 L 716.11818,229.12693 L 709.01974,230.90154 L 731.49815,266.39377 L 755.15963,300.70292 L 736.23044,299.51984 L 716.11818,300.70292 L 676.4852,235.63384 M 675.30213,171.1563 L 674.11905,226.76078 L 678.85135,227.94386 L 685.94979,226.76078 L 691.27363,225.57771 L 697.189,223.21156 L 700.73822,219.66234 L 704.28744,216.11312 L 706.65359,211.38082 L 709.01974,205.46545 L 709.01974,190.08549 L 706.65359,184.17011 L 704.28744,179.43782 L 700.73822,175.8886 L 696.00592,173.52245 L 690.09055,172.33937 L 675.30213,171.1563"
       id="path2387"
       style="fill:#19519d;fill-opacity:1;fill-rule:nonzero;stroke:none" />
    <path
       d="M 771.13113,230.31001 L 771.13113,204.28238 L 769.94806,181.80397 L 803.07413,182.98704 L 840.34097,181.80397 L 840.34097,197.18393 L 799.52491,194.81779 L 798.34184,213.74697 L 798.34184,232.08462 L 840.34097,230.90155 L 839.15789,237.99999 L 840.34097,245.09844 L 819.63717,243.91536 L 798.34184,243.91536 L 798.34184,266.39377 L 798.34184,266.39377 L 799.52491,287.68911 L 819.63717,287.68911 L 840.34097,285.32296 L 840.34097,300.70292 L 808.9895,299.51985 L 779.41265,300.70292 L 769.94806,300.70292 L 771.13113,278.22451 L 771.13113,230.31001"
       id="path2391"
       style="fill:#19519d;fill-opacity:1;fill-rule:nonzero;stroke:none" />
    <path
       d="M 969.88759,300.70292 L 953.32455,299.51985 L 936.76151,300.70292 L 923.7477,265.2107 L 881.74857,265.2107 L 874.65012,282.95681 L 868.73475,300.70292 L 860.45323,299.51985 L 850.98864,300.70292 L 874.65012,248.64766 L 903.63544,181.80397 L 917.83233,181.80397 L 943.85996,245.09844 L 958.05685,275.85836 L 969.88759,300.70292 M 920.19848,254.56303 L 911.91696,234.45077 L 903.63544,214.93004 L 894.76238,234.45077 L 886.48086,254.56303 L 920.19848,254.56303"
       id="path2395"
       style="fill:#19519d;fill-opacity:1;fill-rule:nonzero;stroke:none" />
    <path
       d="M 988.22524,230.31001 L 987.04217,204.28238 L 985.85909,181.80397 L 1001.2391,182.98704 L 1016.619,181.80397 L 1015.4359,204.28238 L 1015.4359,287.68911 L 1036.7313,287.68911 L 1057.4351,285.32296 L 1057.4351,300.70292 L 1026.0836,299.51985 L 996.50676,300.70292 L 985.85909,300.70292 L 985.85909,300.70292 L 987.04217,278.22451 L 988.22524,253.37996 L 988.22524,230.31001"
       id="path2399"
       style="fill:#19519d;fill-opacity:1;fill-rule:nonzero;stroke:none" />
    <path
       d="M 1088.195,210.19775 L 1088.195,194.81779 L 1072.815,196.00086 L 1053.8858,197.18393 L 1055.0689,190.08549 L 1053.8858,181.80397 L 1102.3919,182.98704 L 1149.1233,181.80397 L 1147.9402,190.08549 L 1149.1233,197.18393 L 1131.3772,196.00086 L 1115.9972,194.81779 L 1114.8142,210.19775 L 1114.8142,253.37996 L 1115.9972,278.22451 L 1117.1803,300.70292 L 1102.3919,299.51985 L 1087.0119,300.70292 L 1088.195,278.22451 L 1088.195,210.19775"
       id="path2403"
       style="fill:#19519d;fill-opacity:1;fill-rule:nonzero;stroke:none" />
    <path
       d="M 1168.0525,230.31001 L 1166.8694,204.28238 L 1165.6864,181.80397 L 1198.2209,182.98704 L 1237.2623,181.80397 L 1236.0793,188.90241 L 1237.2623,197.18393 L 1195.8547,194.81779 L 1194.6717,213.74697 L 1194.6717,232.08462 L 1236.0793,230.90155 L 1236.0793,245.09844 L 1215.967,243.91536 L 1194.6717,243.91536 L 1194.6717,266.39377 L 1194.6717,266.39377 L 1194.6717,287.68911 L 1215.967,287.68911 L 1237.2623,285.32296 L 1236.0793,293.60448 L 1237.2623,300.70292 L 1205.3193,299.51985 L 1176.334,300.70292 L 1165.6864,300.70292 L 1166.8694,278.22451 L 1168.0525,253.37996 L 1168.0525,230.31001"
       id="path2407"
       style="fill:#19519d;fill-opacity:1;fill-rule:nonzero;stroke:none" />
    <path
       d="M 1286.3599,246.28151 L 1287.543,279.40759 L 1288.726,300.70292 L 1273.3461,299.51985 L 1257.9661,300.70292 L 1259.1492,278.22451 L 1259.1492,204.28238 L 1257.9661,181.80397 L 1273.3461,182.98704 L 1288.726,181.80397 L 1287.543,191.26856 L 1287.543,204.28238 L 1286.3599,236.81692 L 1314.7537,206.64853 L 1333.0913,181.80397 L 1333.0913,181.80397 L 1343.739,182.98704 L 1355.5697,181.80397 L 1331.9083,205.46545 L 1307.6552,230.90155 L 1334.2744,269.94299 L 1357.9359,300.70292 L 1340.1898,299.51985 L 1324.2183,300.70292 L 1287.543,246.28151 L 1286.3599,246.28151"
       id="path2411"
       style="fill:#19519d;fill-opacity:1;fill-rule:nonzero;stroke:none" />
  </g>
</svg>
